<?xml version="1.0" encoding="utf-8" standalone="no"?>
<!DOCTYPE svg PUBLIC "-//W3C//DTD SVG 1.1//EN"
  "http://www.w3.org/Graphics/SVG/1.1/DTD/svg11.dtd">
<svg xmlns:xlink="http://www.w3.org/1999/xlink" width="419.948437pt" height="307.106875pt" viewBox="0 0 419.948437 307.106875" xmlns="http://www.w3.org/2000/svg" version="1.1">
 <metadata>
  <rdf:RDF xmlns:dc="http://purl.org/dc/elements/1.1/" xmlns:cc="http://creativecommons.org/ns#" xmlns:rdf="http://www.w3.org/1999/02/22-rdf-syntax-ns#">
   <cc:Work>
    <dc:type rdf:resource="http://purl.org/dc/dcmitype/StillImage"/>
    <dc:date>2025-03-05T22:31:15.017742</dc:date>
    <dc:format>image/svg+xml</dc:format>
    <dc:creator>
     <cc:Agent>
      <dc:title>Matplotlib v3.10.1, https://matplotlib.org/</dc:title>
     </cc:Agent>
    </dc:creator>
   </cc:Work>
  </rdf:RDF>
 </metadata>
 <defs>
  <style type="text/css">*{stroke-linejoin: round; stroke-linecap: butt}</style>
 </defs>
 <g id="figure_1">
  <g id="patch_1">
   <path d="M 0 307.106875 
L 419.948437 307.106875 
L 419.948437 0 
L 0 0 
z
" style="fill: #ffffff"/>
  </g>
  <g id="axes_1">
   <g id="patch_2">
    <path d="M 77.948437 237.986875 
L 412.748438 237.986875 
L 412.748438 16.226875 
L 77.948437 16.226875 
z
" style="fill: #ffffff"/>
   </g>
   <g id="matplotlib.axis_1">
    <g id="xtick_1">
     <g id="line2d_1">
      <path d="M 93.166619 237.986875 
L 93.166619 16.226875 
" clip-path="url(#p83a9f3917a)" style="fill: none; stroke-dasharray: 7.4,3.2; stroke-dashoffset: 0; stroke: #a9a9a9; stroke-opacity: 0.3; stroke-width: 2"/>
     </g>
     <g id="line2d_2">
      <defs>
       <path id="m2f817551c4" d="M 0 0 
L 0 3.5 
" style="stroke: #000000; stroke-width: 0.8"/>
      </defs>
      <g>
       <use xlink:href="#m2f817551c4" x="93.166619" y="237.986875" style="stroke: #000000; stroke-width: 0.8"/>
      </g>
     </g>
     <g id="text_1">
      <!-- 0 -->
      <g transform="translate(86.666619 263.040625) scale(0.26 -0.26)">
       <defs>
        <path id="TimesNewRomanPSMT-30" d="M 231 2094 
Q 231 2819 450 3342 
Q 669 3866 1031 4122 
Q 1313 4325 1613 4325 
Q 2100 4325 2488 3828 
Q 2972 3213 2972 2159 
Q 2972 1422 2759 906 
Q 2547 391 2217 158 
Q 1888 -75 1581 -75 
Q 975 -75 572 641 
Q 231 1244 231 2094 
z
M 844 2016 
Q 844 1141 1059 588 
Q 1238 122 1591 122 
Q 1759 122 1940 273 
Q 2122 425 2216 781 
Q 2359 1319 2359 2297 
Q 2359 3022 2209 3506 
Q 2097 3866 1919 4016 
Q 1791 4119 1609 4119 
Q 1397 4119 1231 3928 
Q 1006 3669 925 3112 
Q 844 2556 844 2016 
z
" transform="scale(0.015625)"/>
       </defs>
       <use xlink:href="#TimesNewRomanPSMT-30"/>
      </g>
     </g>
    </g>
    <g id="xtick_2">
     <g id="line2d_3">
      <path d="M 163.135271 237.986875 
L 163.135271 16.226875 
" clip-path="url(#p83a9f3917a)" style="fill: none; stroke-dasharray: 7.4,3.2; stroke-dashoffset: 0; stroke: #a9a9a9; stroke-opacity: 0.3; stroke-width: 2"/>
     </g>
     <g id="line2d_4">
      <g>
       <use xlink:href="#m2f817551c4" x="163.135271" y="237.986875" style="stroke: #000000; stroke-width: 0.8"/>
      </g>
     </g>
     <g id="text_2">
      <!-- 500 -->
      <g transform="translate(143.635271 263.040625) scale(0.26 -0.26)">
       <defs>
        <path id="TimesNewRomanPSMT-35" d="M 2778 4238 
L 2534 3706 
L 1259 3706 
L 981 3138 
Q 1809 3016 2294 2522 
Q 2709 2097 2709 1522 
Q 2709 1188 2573 903 
Q 2438 619 2231 419 
Q 2025 219 1772 97 
Q 1413 -75 1034 -75 
Q 653 -75 479 54 
Q 306 184 306 341 
Q 306 428 378 495 
Q 450 563 559 563 
Q 641 563 702 538 
Q 763 513 909 409 
Q 1144 247 1384 247 
Q 1750 247 2026 523 
Q 2303 800 2303 1197 
Q 2303 1581 2056 1914 
Q 1809 2247 1375 2428 
Q 1034 2569 447 2591 
L 1259 4238 
L 2778 4238 
z
" transform="scale(0.015625)"/>
       </defs>
       <use xlink:href="#TimesNewRomanPSMT-35"/>
       <use xlink:href="#TimesNewRomanPSMT-30" transform="translate(50 0)"/>
       <use xlink:href="#TimesNewRomanPSMT-30" transform="translate(100 0)"/>
      </g>
     </g>
    </g>
    <g id="xtick_3">
     <g id="line2d_5">
      <path d="M 233.103923 237.986875 
L 233.103923 16.226875 
" clip-path="url(#p83a9f3917a)" style="fill: none; stroke-dasharray: 7.4,3.2; stroke-dashoffset: 0; stroke: #a9a9a9; stroke-opacity: 0.3; stroke-width: 2"/>
     </g>
     <g id="line2d_6">
      <g>
       <use xlink:href="#m2f817551c4" x="233.103923" y="237.986875" style="stroke: #000000; stroke-width: 0.8"/>
      </g>
     </g>
     <g id="text_3">
      <!-- 1000 -->
      <g transform="translate(207.103923 263.040625) scale(0.26 -0.26)">
       <defs>
        <path id="TimesNewRomanPSMT-31" d="M 750 3822 
L 1781 4325 
L 1884 4325 
L 1884 747 
Q 1884 391 1914 303 
Q 1944 216 2037 169 
Q 2131 122 2419 116 
L 2419 0 
L 825 0 
L 825 116 
Q 1125 122 1212 167 
Q 1300 213 1334 289 
Q 1369 366 1369 747 
L 1369 3034 
Q 1369 3497 1338 3628 
Q 1316 3728 1258 3775 
Q 1200 3822 1119 3822 
Q 1003 3822 797 3725 
L 750 3822 
z
" transform="scale(0.015625)"/>
       </defs>
       <use xlink:href="#TimesNewRomanPSMT-31"/>
       <use xlink:href="#TimesNewRomanPSMT-30" transform="translate(50 0)"/>
       <use xlink:href="#TimesNewRomanPSMT-30" transform="translate(100 0)"/>
       <use xlink:href="#TimesNewRomanPSMT-30" transform="translate(150 0)"/>
      </g>
     </g>
    </g>
    <g id="xtick_4">
     <g id="line2d_7">
      <path d="M 303.072575 237.986875 
L 303.072575 16.226875 
" clip-path="url(#p83a9f3917a)" style="fill: none; stroke-dasharray: 7.4,3.2; stroke-dashoffset: 0; stroke: #a9a9a9; stroke-opacity: 0.3; stroke-width: 2"/>
     </g>
     <g id="line2d_8">
      <g>
       <use xlink:href="#m2f817551c4" x="303.072575" y="237.986875" style="stroke: #000000; stroke-width: 0.8"/>
      </g>
     </g>
     <g id="text_4">
      <!-- 1500 -->
      <g transform="translate(277.072575 263.040625) scale(0.26 -0.26)">
       <use xlink:href="#TimesNewRomanPSMT-31"/>
       <use xlink:href="#TimesNewRomanPSMT-35" transform="translate(50 0)"/>
       <use xlink:href="#TimesNewRomanPSMT-30" transform="translate(100 0)"/>
       <use xlink:href="#TimesNewRomanPSMT-30" transform="translate(150 0)"/>
      </g>
     </g>
    </g>
    <g id="xtick_5">
     <g id="line2d_9">
      <path d="M 373.041227 237.986875 
L 373.041227 16.226875 
" clip-path="url(#p83a9f3917a)" style="fill: none; stroke-dasharray: 7.4,3.2; stroke-dashoffset: 0; stroke: #a9a9a9; stroke-opacity: 0.3; stroke-width: 2"/>
     </g>
     <g id="line2d_10">
      <g>
       <use xlink:href="#m2f817551c4" x="373.041227" y="237.986875" style="stroke: #000000; stroke-width: 0.8"/>
      </g>
     </g>
     <g id="text_5">
      <!-- 2000 -->
      <g transform="translate(347.041227 263.040625) scale(0.26 -0.26)">
       <defs>
        <path id="TimesNewRomanPSMT-32" d="M 2934 816 
L 2638 0 
L 138 0 
L 138 116 
Q 1241 1122 1691 1759 
Q 2141 2397 2141 2925 
Q 2141 3328 1894 3587 
Q 1647 3847 1303 3847 
Q 991 3847 742 3664 
Q 494 3481 375 3128 
L 259 3128 
Q 338 3706 661 4015 
Q 984 4325 1469 4325 
Q 1984 4325 2329 3994 
Q 2675 3663 2675 3213 
Q 2675 2891 2525 2569 
Q 2294 2063 1775 1497 
Q 997 647 803 472 
L 1909 472 
Q 2247 472 2383 497 
Q 2519 522 2628 598 
Q 2738 675 2819 816 
L 2934 816 
z
" transform="scale(0.015625)"/>
       </defs>
       <use xlink:href="#TimesNewRomanPSMT-32"/>
       <use xlink:href="#TimesNewRomanPSMT-30" transform="translate(50 0)"/>
       <use xlink:href="#TimesNewRomanPSMT-30" transform="translate(100 0)"/>
       <use xlink:href="#TimesNewRomanPSMT-30" transform="translate(150 0)"/>
      </g>
     </g>
    </g>
    <g id="text_6">
     <!-- Training Steps -->
     <g transform="translate(157.96875 293.433438) scale(0.3 -0.3)">
      <defs>
       <path id="TimesNewRomanPSMT-54" d="M 3703 4238 
L 3750 3244 
L 3631 3244 
Q 3597 3506 3538 3619 
Q 3441 3800 3280 3886 
Q 3119 3972 2856 3972 
L 2259 3972 
L 2259 734 
Q 2259 344 2344 247 
Q 2463 116 2709 116 
L 2856 116 
L 2856 0 
L 1059 0 
L 1059 116 
L 1209 116 
Q 1478 116 1591 278 
Q 1659 378 1659 734 
L 1659 3972 
L 1150 3972 
Q 853 3972 728 3928 
Q 566 3869 450 3700 
Q 334 3531 313 3244 
L 194 3244 
L 244 4238 
L 3703 4238 
z
" transform="scale(0.015625)"/>
       <path id="TimesNewRomanPSMT-72" d="M 1038 2947 
L 1038 2303 
Q 1397 2947 1775 2947 
Q 1947 2947 2059 2842 
Q 2172 2738 2172 2600 
Q 2172 2478 2090 2393 
Q 2009 2309 1897 2309 
Q 1788 2309 1652 2417 
Q 1516 2525 1450 2525 
Q 1394 2525 1328 2463 
Q 1188 2334 1038 2041 
L 1038 669 
Q 1038 431 1097 309 
Q 1138 225 1241 169 
Q 1344 113 1538 113 
L 1538 0 
L 72 0 
L 72 113 
Q 291 113 397 181 
Q 475 231 506 341 
Q 522 394 522 644 
L 522 1753 
Q 522 2253 501 2348 
Q 481 2444 426 2487 
Q 372 2531 291 2531 
Q 194 2531 72 2484 
L 41 2597 
L 906 2947 
L 1038 2947 
z
" transform="scale(0.015625)"/>
       <path id="TimesNewRomanPSMT-61" d="M 1822 413 
Q 1381 72 1269 19 
Q 1100 -59 909 -59 
Q 613 -59 420 144 
Q 228 347 228 678 
Q 228 888 322 1041 
Q 450 1253 767 1440 
Q 1084 1628 1822 1897 
L 1822 2009 
Q 1822 2438 1686 2597 
Q 1550 2756 1291 2756 
Q 1094 2756 978 2650 
Q 859 2544 859 2406 
L 866 2225 
Q 866 2081 792 2003 
Q 719 1925 600 1925 
Q 484 1925 411 2006 
Q 338 2088 338 2228 
Q 338 2497 613 2722 
Q 888 2947 1384 2947 
Q 1766 2947 2009 2819 
Q 2194 2722 2281 2516 
Q 2338 2381 2338 1966 
L 2338 994 
Q 2338 584 2353 492 
Q 2369 400 2405 369 
Q 2441 338 2488 338 
Q 2538 338 2575 359 
Q 2641 400 2828 588 
L 2828 413 
Q 2478 -56 2159 -56 
Q 2006 -56 1915 50 
Q 1825 156 1822 413 
z
M 1822 616 
L 1822 1706 
Q 1350 1519 1213 1441 
Q 966 1303 859 1153 
Q 753 1003 753 825 
Q 753 600 887 451 
Q 1022 303 1197 303 
Q 1434 303 1822 616 
z
" transform="scale(0.015625)"/>
       <path id="TimesNewRomanPSMT-69" d="M 928 4444 
Q 1059 4444 1151 4351 
Q 1244 4259 1244 4128 
Q 1244 3997 1151 3903 
Q 1059 3809 928 3809 
Q 797 3809 703 3903 
Q 609 3997 609 4128 
Q 609 4259 701 4351 
Q 794 4444 928 4444 
z
M 1188 2947 
L 1188 647 
Q 1188 378 1227 289 
Q 1266 200 1342 156 
Q 1419 113 1622 113 
L 1622 0 
L 231 0 
L 231 113 
Q 441 113 512 153 
Q 584 194 626 287 
Q 669 381 669 647 
L 669 1750 
Q 669 2216 641 2353 
Q 619 2453 572 2492 
Q 525 2531 444 2531 
Q 356 2531 231 2484 
L 188 2597 
L 1050 2947 
L 1188 2947 
z
" transform="scale(0.015625)"/>
       <path id="TimesNewRomanPSMT-6e" d="M 1034 2341 
Q 1538 2947 1994 2947 
Q 2228 2947 2397 2830 
Q 2566 2713 2666 2444 
Q 2734 2256 2734 1869 
L 2734 647 
Q 2734 375 2778 278 
Q 2813 200 2889 156 
Q 2966 113 3172 113 
L 3172 0 
L 1756 0 
L 1756 113 
L 1816 113 
Q 2016 113 2095 173 
Q 2175 234 2206 353 
Q 2219 400 2219 647 
L 2219 1819 
Q 2219 2209 2117 2386 
Q 2016 2563 1775 2563 
Q 1403 2563 1034 2156 
L 1034 647 
Q 1034 356 1069 288 
Q 1113 197 1189 155 
Q 1266 113 1500 113 
L 1500 0 
L 84 0 
L 84 113 
L 147 113 
Q 366 113 442 223 
Q 519 334 519 647 
L 519 1709 
Q 519 2225 495 2337 
Q 472 2450 423 2490 
Q 375 2531 294 2531 
Q 206 2531 84 2484 
L 38 2597 
L 900 2947 
L 1034 2947 
L 1034 2341 
z
" transform="scale(0.015625)"/>
       <path id="TimesNewRomanPSMT-67" d="M 966 1044 
Q 703 1172 562 1401 
Q 422 1631 422 1909 
Q 422 2334 742 2640 
Q 1063 2947 1563 2947 
Q 1972 2947 2272 2747 
L 2878 2747 
Q 3013 2747 3034 2739 
Q 3056 2731 3066 2713 
Q 3084 2684 3084 2613 
Q 3084 2531 3069 2500 
Q 3059 2484 3036 2475 
Q 3013 2466 2878 2466 
L 2506 2466 
Q 2681 2241 2681 1891 
Q 2681 1491 2375 1206 
Q 2069 922 1553 922 
Q 1341 922 1119 984 
Q 981 866 932 777 
Q 884 688 884 625 
Q 884 572 936 522 
Q 988 472 1138 450 
Q 1225 438 1575 428 
Q 2219 413 2409 384 
Q 2700 344 2873 169 
Q 3047 -6 3047 -263 
Q 3047 -616 2716 -925 
Q 2228 -1381 1444 -1381 
Q 841 -1381 425 -1109 
Q 191 -953 191 -784 
Q 191 -709 225 -634 
Q 278 -519 444 -313 
Q 466 -284 763 25 
Q 600 122 533 198 
Q 466 275 466 372 
Q 466 481 555 628 
Q 644 775 966 1044 
z
M 1509 2797 
Q 1278 2797 1122 2612 
Q 966 2428 966 2047 
Q 966 1553 1178 1281 
Q 1341 1075 1591 1075 
Q 1828 1075 1981 1253 
Q 2134 1431 2134 1813 
Q 2134 2309 1919 2591 
Q 1759 2797 1509 2797 
z
M 934 0 
Q 788 -159 713 -296 
Q 638 -434 638 -550 
Q 638 -700 819 -813 
Q 1131 -1006 1722 -1006 
Q 2284 -1006 2551 -807 
Q 2819 -609 2819 -384 
Q 2819 -222 2659 -153 
Q 2497 -84 2016 -72 
Q 1313 -53 934 0 
z
" transform="scale(0.015625)"/>
       <path id="TimesNewRomanPSMT-20" transform="scale(0.015625)"/>
       <path id="TimesNewRomanPSMT-53" d="M 2934 4334 
L 2934 2869 
L 2819 2869 
Q 2763 3291 2617 3541 
Q 2472 3791 2203 3937 
Q 1934 4084 1647 4084 
Q 1322 4084 1109 3886 
Q 897 3688 897 3434 
Q 897 3241 1031 3081 
Q 1225 2847 1953 2456 
Q 2547 2138 2764 1967 
Q 2981 1797 3098 1565 
Q 3216 1334 3216 1081 
Q 3216 600 2842 251 
Q 2469 -97 1881 -97 
Q 1697 -97 1534 -69 
Q 1438 -53 1133 45 
Q 828 144 747 144 
Q 669 144 623 97 
Q 578 50 556 -97 
L 441 -97 
L 441 1356 
L 556 1356 
Q 638 900 775 673 
Q 913 447 1195 297 
Q 1478 147 1816 147 
Q 2206 147 2432 353 
Q 2659 559 2659 841 
Q 2659 997 2573 1156 
Q 2488 1316 2306 1453 
Q 2184 1547 1640 1851 
Q 1097 2156 867 2337 
Q 638 2519 519 2737 
Q 400 2956 400 3219 
Q 400 3675 750 4004 
Q 1100 4334 1641 4334 
Q 1978 4334 2356 4169 
Q 2531 4091 2603 4091 
Q 2684 4091 2736 4139 
Q 2788 4188 2819 4334 
L 2934 4334 
z
" transform="scale(0.015625)"/>
       <path id="TimesNewRomanPSMT-74" d="M 1031 3803 
L 1031 2863 
L 1700 2863 
L 1700 2644 
L 1031 2644 
L 1031 788 
Q 1031 509 1111 412 
Q 1191 316 1316 316 
Q 1419 316 1516 380 
Q 1613 444 1666 569 
L 1788 569 
Q 1678 263 1478 108 
Q 1278 -47 1066 -47 
Q 922 -47 784 33 
Q 647 113 581 261 
Q 516 409 516 719 
L 516 2644 
L 63 2644 
L 63 2747 
Q 234 2816 414 2980 
Q 594 3144 734 3369 
Q 806 3488 934 3803 
L 1031 3803 
z
" transform="scale(0.015625)"/>
       <path id="TimesNewRomanPSMT-65" d="M 681 1784 
Q 678 1147 991 784 
Q 1303 422 1725 422 
Q 2006 422 2214 576 
Q 2422 731 2563 1106 
L 2659 1044 
Q 2594 616 2278 264 
Q 1963 -88 1488 -88 
Q 972 -88 605 314 
Q 238 716 238 1394 
Q 238 2128 614 2539 
Q 991 2950 1559 2950 
Q 2041 2950 2350 2633 
Q 2659 2316 2659 1784 
L 681 1784 
z
M 681 1966 
L 2006 1966 
Q 1991 2241 1941 2353 
Q 1863 2528 1708 2628 
Q 1553 2728 1384 2728 
Q 1125 2728 920 2526 
Q 716 2325 681 1966 
z
" transform="scale(0.015625)"/>
       <path id="TimesNewRomanPSMT-70" d="M -6 2578 
L 875 2934 
L 994 2934 
L 994 2266 
Q 1216 2644 1439 2795 
Q 1663 2947 1909 2947 
Q 2341 2947 2628 2609 
Q 2981 2197 2981 1534 
Q 2981 794 2556 309 
Q 2206 -88 1675 -88 
Q 1444 -88 1275 -22 
Q 1150 25 994 166 
L 994 -706 
Q 994 -1000 1030 -1079 
Q 1066 -1159 1155 -1206 
Q 1244 -1253 1478 -1253 
L 1478 -1369 
L -22 -1369 
L -22 -1253 
L 56 -1253 
Q 228 -1256 350 -1188 
Q 409 -1153 442 -1076 
Q 475 -1000 475 -688 
L 475 2019 
Q 475 2297 450 2372 
Q 425 2447 370 2484 
Q 316 2522 222 2522 
Q 147 2522 31 2478 
L -6 2578 
z
M 994 2081 
L 994 1013 
Q 994 666 1022 556 
Q 1066 375 1236 237 
Q 1406 100 1666 100 
Q 1978 100 2172 344 
Q 2425 663 2425 1241 
Q 2425 1897 2138 2250 
Q 1938 2494 1663 2494 
Q 1513 2494 1366 2419 
Q 1253 2363 994 2081 
z
" transform="scale(0.015625)"/>
       <path id="TimesNewRomanPSMT-73" d="M 2050 2947 
L 2050 1972 
L 1947 1972 
Q 1828 2431 1642 2597 
Q 1456 2763 1169 2763 
Q 950 2763 815 2647 
Q 681 2531 681 2391 
Q 681 2216 781 2091 
Q 878 1963 1175 1819 
L 1631 1597 
Q 2266 1288 2266 781 
Q 2266 391 1970 151 
Q 1675 -88 1309 -88 
Q 1047 -88 709 6 
Q 606 38 541 38 
Q 469 38 428 -44 
L 325 -44 
L 325 978 
L 428 978 
Q 516 541 762 319 
Q 1009 97 1316 97 
Q 1531 97 1667 223 
Q 1803 350 1803 528 
Q 1803 744 1651 891 
Q 1500 1038 1047 1263 
Q 594 1488 453 1669 
Q 313 1847 313 2119 
Q 313 2472 555 2709 
Q 797 2947 1181 2947 
Q 1350 2947 1591 2875 
Q 1750 2828 1803 2828 
Q 1853 2828 1881 2850 
Q 1909 2872 1947 2947 
L 2050 2947 
z
" transform="scale(0.015625)"/>
      </defs>
      <use xlink:href="#TimesNewRomanPSMT-54"/>
      <use xlink:href="#TimesNewRomanPSMT-72" transform="translate(57.583984 0)"/>
      <use xlink:href="#TimesNewRomanPSMT-61" transform="translate(90.884766 0)"/>
      <use xlink:href="#TimesNewRomanPSMT-69" transform="translate(135.269531 0)"/>
      <use xlink:href="#TimesNewRomanPSMT-6e" transform="translate(163.052734 0)"/>
      <use xlink:href="#TimesNewRomanPSMT-69" transform="translate(213.052734 0)"/>
      <use xlink:href="#TimesNewRomanPSMT-6e" transform="translate(240.835938 0)"/>
      <use xlink:href="#TimesNewRomanPSMT-67" transform="translate(290.835938 0)"/>
      <use xlink:href="#TimesNewRomanPSMT-20" transform="translate(340.835938 0)"/>
      <use xlink:href="#TimesNewRomanPSMT-53" transform="translate(365.835938 0)"/>
      <use xlink:href="#TimesNewRomanPSMT-74" transform="translate(421.451172 0)"/>
      <use xlink:href="#TimesNewRomanPSMT-65" transform="translate(449.234375 0)"/>
      <use xlink:href="#TimesNewRomanPSMT-70" transform="translate(493.619141 0)"/>
      <use xlink:href="#TimesNewRomanPSMT-73" transform="translate(543.619141 0)"/>
     </g>
    </g>
   </g>
   <g id="matplotlib.axis_2">
    <g id="ytick_1">
     <g id="line2d_11">
      <path d="M 77.948437 237.986875 
L 412.748438 237.986875 
" clip-path="url(#p83a9f3917a)" style="fill: none; stroke-dasharray: 7.4,3.2; stroke-dashoffset: 0; stroke: #a9a9a9; stroke-opacity: 0.3; stroke-width: 2"/>
     </g>
     <g id="line2d_12">
      <defs>
       <path id="m5b8bbbcfd5" d="M 0 0 
L -3.5 0 
" style="stroke: #000000; stroke-width: 0.8"/>
      </defs>
      <g>
       <use xlink:href="#m5b8bbbcfd5" x="77.948437" y="237.986875" style="stroke: #000000; stroke-width: 0.8"/>
      </g>
     </g>
     <g id="text_7">
      <!-- 0.3 -->
      <g transform="translate(38.448437 247.01375) scale(0.26 -0.26)">
       <defs>
        <path id="TimesNewRomanPSMT-2e" d="M 800 606 
Q 947 606 1047 504 
Q 1147 403 1147 259 
Q 1147 116 1045 14 
Q 944 -88 800 -88 
Q 656 -88 554 14 
Q 453 116 453 259 
Q 453 406 554 506 
Q 656 606 800 606 
z
" transform="scale(0.015625)"/>
        <path id="TimesNewRomanPSMT-33" d="M 325 3431 
Q 506 3859 782 4092 
Q 1059 4325 1472 4325 
Q 1981 4325 2253 3994 
Q 2459 3747 2459 3466 
Q 2459 3003 1878 2509 
Q 2269 2356 2469 2072 
Q 2669 1788 2669 1403 
Q 2669 853 2319 450 
Q 1863 -75 997 -75 
Q 569 -75 414 31 
Q 259 138 259 259 
Q 259 350 332 419 
Q 406 488 509 488 
Q 588 488 669 463 
Q 722 447 909 348 
Q 1097 250 1169 231 
Q 1284 197 1416 197 
Q 1734 197 1970 444 
Q 2206 691 2206 1028 
Q 2206 1275 2097 1509 
Q 2016 1684 1919 1775 
Q 1784 1900 1550 2001 
Q 1316 2103 1072 2103 
L 972 2103 
L 972 2197 
Q 1219 2228 1467 2375 
Q 1716 2522 1828 2728 
Q 1941 2934 1941 3181 
Q 1941 3503 1739 3701 
Q 1538 3900 1238 3900 
Q 753 3900 428 3381 
L 325 3431 
z
" transform="scale(0.015625)"/>
       </defs>
       <use xlink:href="#TimesNewRomanPSMT-30"/>
       <use xlink:href="#TimesNewRomanPSMT-2e" transform="translate(50 0)"/>
       <use xlink:href="#TimesNewRomanPSMT-33" transform="translate(75 0)"/>
      </g>
     </g>
    </g>
    <g id="ytick_2">
     <g id="line2d_13">
      <path d="M 77.948437 201.026875 
L 412.748438 201.026875 
" clip-path="url(#p83a9f3917a)" style="fill: none; stroke-dasharray: 7.4,3.2; stroke-dashoffset: 0; stroke: #a9a9a9; stroke-opacity: 0.3; stroke-width: 2"/>
     </g>
     <g id="line2d_14">
      <g>
       <use xlink:href="#m5b8bbbcfd5" x="77.948437" y="201.026875" style="stroke: #000000; stroke-width: 0.8"/>
      </g>
     </g>
     <g id="text_8">
      <!-- 0.4 -->
      <g transform="translate(38.448437 210.05375) scale(0.26 -0.26)">
       <defs>
        <path id="TimesNewRomanPSMT-34" d="M 2978 1563 
L 2978 1119 
L 2409 1119 
L 2409 0 
L 1894 0 
L 1894 1119 
L 100 1119 
L 100 1519 
L 2066 4325 
L 2409 4325 
L 2409 1563 
L 2978 1563 
z
M 1894 1563 
L 1894 3666 
L 406 1563 
L 1894 1563 
z
" transform="scale(0.015625)"/>
       </defs>
       <use xlink:href="#TimesNewRomanPSMT-30"/>
       <use xlink:href="#TimesNewRomanPSMT-2e" transform="translate(50 0)"/>
       <use xlink:href="#TimesNewRomanPSMT-34" transform="translate(75 0)"/>
      </g>
     </g>
    </g>
    <g id="ytick_3">
     <g id="line2d_15">
      <path d="M 77.948437 164.066875 
L 412.748438 164.066875 
" clip-path="url(#p83a9f3917a)" style="fill: none; stroke-dasharray: 7.4,3.2; stroke-dashoffset: 0; stroke: #a9a9a9; stroke-opacity: 0.3; stroke-width: 2"/>
     </g>
     <g id="line2d_16">
      <g>
       <use xlink:href="#m5b8bbbcfd5" x="77.948437" y="164.066875" style="stroke: #000000; stroke-width: 0.8"/>
      </g>
     </g>
     <g id="text_9">
      <!-- 0.5 -->
      <g transform="translate(38.448437 173.09375) scale(0.26 -0.26)">
       <use xlink:href="#TimesNewRomanPSMT-30"/>
       <use xlink:href="#TimesNewRomanPSMT-2e" transform="translate(50 0)"/>
       <use xlink:href="#TimesNewRomanPSMT-35" transform="translate(75 0)"/>
      </g>
     </g>
    </g>
    <g id="ytick_4">
     <g id="line2d_17">
      <path d="M 77.948437 127.106875 
L 412.748438 127.106875 
" clip-path="url(#p83a9f3917a)" style="fill: none; stroke-dasharray: 7.4,3.2; stroke-dashoffset: 0; stroke: #a9a9a9; stroke-opacity: 0.3; stroke-width: 2"/>
     </g>
     <g id="line2d_18">
      <g>
       <use xlink:href="#m5b8bbbcfd5" x="77.948437" y="127.106875" style="stroke: #000000; stroke-width: 0.8"/>
      </g>
     </g>
     <g id="text_10">
      <!-- 0.6 -->
      <g transform="translate(38.448437 136.13375) scale(0.26 -0.26)">
       <defs>
        <path id="TimesNewRomanPSMT-36" d="M 2869 4325 
L 2869 4209 
Q 2456 4169 2195 4045 
Q 1934 3922 1679 3669 
Q 1425 3416 1258 3105 
Q 1091 2794 978 2366 
Q 1428 2675 1881 2675 
Q 2316 2675 2634 2325 
Q 2953 1975 2953 1425 
Q 2953 894 2631 456 
Q 2244 -75 1606 -75 
Q 1172 -75 869 213 
Q 275 772 275 1663 
Q 275 2231 503 2743 
Q 731 3256 1154 3653 
Q 1578 4050 1965 4187 
Q 2353 4325 2688 4325 
L 2869 4325 
z
M 925 2138 
Q 869 1716 869 1456 
Q 869 1156 980 804 
Q 1091 453 1309 247 
Q 1469 100 1697 100 
Q 1969 100 2183 356 
Q 2397 613 2397 1088 
Q 2397 1622 2184 2012 
Q 1972 2403 1581 2403 
Q 1463 2403 1327 2353 
Q 1191 2303 925 2138 
z
" transform="scale(0.015625)"/>
       </defs>
       <use xlink:href="#TimesNewRomanPSMT-30"/>
       <use xlink:href="#TimesNewRomanPSMT-2e" transform="translate(50 0)"/>
       <use xlink:href="#TimesNewRomanPSMT-36" transform="translate(75 0)"/>
      </g>
     </g>
    </g>
    <g id="ytick_5">
     <g id="line2d_19">
      <path d="M 77.948437 90.146875 
L 412.748438 90.146875 
" clip-path="url(#p83a9f3917a)" style="fill: none; stroke-dasharray: 7.4,3.2; stroke-dashoffset: 0; stroke: #a9a9a9; stroke-opacity: 0.3; stroke-width: 2"/>
     </g>
     <g id="line2d_20">
      <g>
       <use xlink:href="#m5b8bbbcfd5" x="77.948437" y="90.146875" style="stroke: #000000; stroke-width: 0.8"/>
      </g>
     </g>
     <g id="text_11">
      <!-- 0.7 -->
      <g transform="translate(38.448437 99.17375) scale(0.26 -0.26)">
       <defs>
        <path id="TimesNewRomanPSMT-37" d="M 644 4238 
L 2916 4238 
L 2916 4119 
L 1503 -88 
L 1153 -88 
L 2419 3728 
L 1253 3728 
Q 900 3728 750 3644 
Q 488 3500 328 3200 
L 238 3234 
L 644 4238 
z
" transform="scale(0.015625)"/>
       </defs>
       <use xlink:href="#TimesNewRomanPSMT-30"/>
       <use xlink:href="#TimesNewRomanPSMT-2e" transform="translate(50 0)"/>
       <use xlink:href="#TimesNewRomanPSMT-37" transform="translate(75 0)"/>
      </g>
     </g>
    </g>
    <g id="ytick_6">
     <g id="line2d_21">
      <path d="M 77.948437 53.186875 
L 412.748438 53.186875 
" clip-path="url(#p83a9f3917a)" style="fill: none; stroke-dasharray: 7.4,3.2; stroke-dashoffset: 0; stroke: #a9a9a9; stroke-opacity: 0.3; stroke-width: 2"/>
     </g>
     <g id="line2d_22">
      <g>
       <use xlink:href="#m5b8bbbcfd5" x="77.948437" y="53.186875" style="stroke: #000000; stroke-width: 0.8"/>
      </g>
     </g>
     <g id="text_12">
      <!-- 0.8 -->
      <g transform="translate(38.448437 62.21375) scale(0.26 -0.26)">
       <defs>
        <path id="TimesNewRomanPSMT-38" d="M 1228 2134 
Q 725 2547 579 2797 
Q 434 3047 434 3316 
Q 434 3728 753 4026 
Q 1072 4325 1600 4325 
Q 2113 4325 2425 4047 
Q 2738 3769 2738 3413 
Q 2738 3175 2569 2928 
Q 2400 2681 1866 2347 
Q 2416 1922 2594 1678 
Q 2831 1359 2831 1006 
Q 2831 559 2490 242 
Q 2150 -75 1597 -75 
Q 994 -75 656 303 
Q 388 606 388 966 
Q 388 1247 577 1523 
Q 766 1800 1228 2134 
z
M 1719 2469 
Q 2094 2806 2194 3001 
Q 2294 3197 2294 3444 
Q 2294 3772 2109 3958 
Q 1925 4144 1606 4144 
Q 1288 4144 1088 3959 
Q 888 3775 888 3528 
Q 888 3366 970 3203 
Q 1053 3041 1206 2894 
L 1719 2469 
z
M 1375 2016 
Q 1116 1797 991 1539 
Q 866 1281 866 981 
Q 866 578 1086 336 
Q 1306 94 1647 94 
Q 1984 94 2187 284 
Q 2391 475 2391 747 
Q 2391 972 2272 1150 
Q 2050 1481 1375 2016 
z
" transform="scale(0.015625)"/>
       </defs>
       <use xlink:href="#TimesNewRomanPSMT-30"/>
       <use xlink:href="#TimesNewRomanPSMT-2e" transform="translate(50 0)"/>
       <use xlink:href="#TimesNewRomanPSMT-38" transform="translate(75 0)"/>
      </g>
     </g>
    </g>
    <g id="ytick_7">
     <g id="line2d_23">
      <path d="M 77.948437 16.226875 
L 412.748438 16.226875 
" clip-path="url(#p83a9f3917a)" style="fill: none; stroke-dasharray: 7.4,3.2; stroke-dashoffset: 0; stroke: #a9a9a9; stroke-opacity: 0.3; stroke-width: 2"/>
     </g>
     <g id="line2d_24">
      <g>
       <use xlink:href="#m5b8bbbcfd5" x="77.948437" y="16.226875" style="stroke: #000000; stroke-width: 0.8"/>
      </g>
     </g>
     <g id="text_13">
      <!-- 0.9 -->
      <g transform="translate(38.448437 25.25375) scale(0.26 -0.26)">
       <defs>
        <path id="TimesNewRomanPSMT-39" d="M 338 -88 
L 338 28 
Q 744 34 1094 217 
Q 1444 400 1770 856 
Q 2097 1313 2225 1859 
Q 1734 1544 1338 1544 
Q 891 1544 572 1889 
Q 253 2234 253 2806 
Q 253 3363 572 3797 
Q 956 4325 1575 4325 
Q 2097 4325 2469 3894 
Q 2925 3359 2925 2575 
Q 2925 1869 2578 1258 
Q 2231 647 1613 244 
Q 1109 -88 516 -88 
L 338 -88 
z
M 2275 2091 
Q 2331 2497 2331 2741 
Q 2331 3044 2228 3395 
Q 2125 3747 1936 3934 
Q 1747 4122 1506 4122 
Q 1228 4122 1018 3872 
Q 809 3622 809 3128 
Q 809 2469 1088 2097 
Q 1291 1828 1588 1828 
Q 1731 1828 1928 1897 
Q 2125 1966 2275 2091 
z
" transform="scale(0.015625)"/>
       </defs>
       <use xlink:href="#TimesNewRomanPSMT-30"/>
       <use xlink:href="#TimesNewRomanPSMT-2e" transform="translate(50 0)"/>
       <use xlink:href="#TimesNewRomanPSMT-39" transform="translate(75 0)"/>
      </g>
     </g>
    </g>
    <g id="text_14">
     <!-- Data Utilization Rate -->
     <g transform="translate(28.03125 254.567031) rotate(-90) scale(0.3 -0.3)">
      <defs>
       <path id="TimesNewRomanPSMT-44" d="M 109 0 
L 109 116 
L 269 116 
Q 538 116 650 288 
Q 719 391 719 750 
L 719 3488 
Q 719 3884 631 3984 
Q 509 4122 269 4122 
L 109 4122 
L 109 4238 
L 1834 4238 
Q 2784 4238 3279 4022 
Q 3775 3806 4076 3303 
Q 4378 2800 4378 2141 
Q 4378 1256 3841 663 
Q 3238 0 2003 0 
L 109 0 
z
M 1319 306 
Q 1716 219 1984 219 
Q 2709 219 3187 728 
Q 3666 1238 3666 2109 
Q 3666 2988 3187 3494 
Q 2709 4000 1959 4000 
Q 1678 4000 1319 3909 
L 1319 306 
z
" transform="scale(0.015625)"/>
       <path id="TimesNewRomanPSMT-55" d="M 3053 4122 
L 3053 4238 
L 4553 4238 
L 4553 4122 
L 4394 4122 
Q 4144 4122 4009 3913 
Q 3944 3816 3944 3463 
L 3944 1744 
Q 3944 1106 3817 754 
Q 3691 403 3320 151 
Q 2950 -100 2313 -100 
Q 1619 -100 1259 140 
Q 900 381 750 788 
Q 650 1066 650 1831 
L 650 3488 
Q 650 3878 542 4000 
Q 434 4122 194 4122 
L 34 4122 
L 34 4238 
L 1866 4238 
L 1866 4122 
L 1703 4122 
Q 1441 4122 1328 3956 
Q 1250 3844 1250 3488 
L 1250 1641 
Q 1250 1394 1295 1075 
Q 1341 756 1459 578 
Q 1578 400 1801 284 
Q 2025 169 2350 169 
Q 2766 169 3094 350 
Q 3422 531 3542 814 
Q 3663 1097 3663 1772 
L 3663 3488 
Q 3663 3884 3575 3984 
Q 3453 4122 3213 4122 
L 3053 4122 
z
" transform="scale(0.015625)"/>
       <path id="TimesNewRomanPSMT-6c" d="M 1184 4444 
L 1184 647 
Q 1184 378 1223 290 
Q 1263 203 1344 158 
Q 1425 113 1647 113 
L 1647 0 
L 244 0 
L 244 113 
Q 441 113 512 153 
Q 584 194 625 287 
Q 666 381 666 647 
L 666 3247 
Q 666 3731 644 3842 
Q 622 3953 573 3993 
Q 525 4034 450 4034 
Q 369 4034 244 3984 
L 191 4094 
L 1044 4444 
L 1184 4444 
z
" transform="scale(0.015625)"/>
       <path id="TimesNewRomanPSMT-7a" d="M 2688 878 
L 2653 0 
L 128 0 
L 128 113 
L 2028 2644 
L 1091 2644 
Q 788 2644 694 2605 
Q 600 2566 541 2456 
Q 456 2300 444 2069 
L 319 2069 
L 338 2863 
L 2738 2863 
L 2738 2747 
L 819 209 
L 1863 209 
Q 2191 209 2308 264 
Q 2425 319 2497 456 
Q 2547 556 2581 878 
L 2688 878 
z
" transform="scale(0.015625)"/>
       <path id="TimesNewRomanPSMT-6f" d="M 1600 2947 
Q 2250 2947 2644 2453 
Q 2978 2031 2978 1484 
Q 2978 1100 2793 706 
Q 2609 313 2286 112 
Q 1963 -88 1566 -88 
Q 919 -88 538 428 
Q 216 863 216 1403 
Q 216 1797 411 2186 
Q 606 2575 925 2761 
Q 1244 2947 1600 2947 
z
M 1503 2744 
Q 1338 2744 1170 2645 
Q 1003 2547 900 2300 
Q 797 2053 797 1666 
Q 797 1041 1045 587 
Q 1294 134 1700 134 
Q 2003 134 2200 384 
Q 2397 634 2397 1244 
Q 2397 2006 2069 2444 
Q 1847 2744 1503 2744 
z
" transform="scale(0.015625)"/>
       <path id="TimesNewRomanPSMT-52" d="M 4325 0 
L 3194 0 
L 1759 1981 
Q 1600 1975 1500 1975 
Q 1459 1975 1412 1976 
Q 1366 1978 1316 1981 
L 1316 750 
Q 1316 350 1403 253 
Q 1522 116 1759 116 
L 1925 116 
L 1925 0 
L 109 0 
L 109 116 
L 269 116 
Q 538 116 653 291 
Q 719 388 719 750 
L 719 3488 
Q 719 3888 631 3984 
Q 509 4122 269 4122 
L 109 4122 
L 109 4238 
L 1653 4238 
Q 2328 4238 2648 4139 
Q 2969 4041 3192 3777 
Q 3416 3513 3416 3147 
Q 3416 2756 3161 2468 
Q 2906 2181 2372 2063 
L 3247 847 
Q 3547 428 3762 290 
Q 3978 153 4325 116 
L 4325 0 
z
M 1316 2178 
Q 1375 2178 1419 2176 
Q 1463 2175 1491 2175 
Q 2097 2175 2405 2437 
Q 2713 2700 2713 3106 
Q 2713 3503 2464 3751 
Q 2216 4000 1806 4000 
Q 1625 4000 1316 3941 
L 1316 2178 
z
" transform="scale(0.015625)"/>
      </defs>
      <use xlink:href="#TimesNewRomanPSMT-44"/>
      <use xlink:href="#TimesNewRomanPSMT-61" transform="translate(72.216797 0)"/>
      <use xlink:href="#TimesNewRomanPSMT-74" transform="translate(116.601562 0)"/>
      <use xlink:href="#TimesNewRomanPSMT-61" transform="translate(144.384766 0)"/>
      <use xlink:href="#TimesNewRomanPSMT-20" transform="translate(188.769531 0)"/>
      <use xlink:href="#TimesNewRomanPSMT-55" transform="translate(213.769531 0)"/>
      <use xlink:href="#TimesNewRomanPSMT-74" transform="translate(285.986328 0)"/>
      <use xlink:href="#TimesNewRomanPSMT-69" transform="translate(313.769531 0)"/>
      <use xlink:href="#TimesNewRomanPSMT-6c" transform="translate(341.552734 0)"/>
      <use xlink:href="#TimesNewRomanPSMT-69" transform="translate(369.335938 0)"/>
      <use xlink:href="#TimesNewRomanPSMT-7a" transform="translate(397.119141 0)"/>
      <use xlink:href="#TimesNewRomanPSMT-61" transform="translate(441.503906 0)"/>
      <use xlink:href="#TimesNewRomanPSMT-74" transform="translate(485.888672 0)"/>
      <use xlink:href="#TimesNewRomanPSMT-69" transform="translate(513.671875 0)"/>
      <use xlink:href="#TimesNewRomanPSMT-6f" transform="translate(541.455078 0)"/>
      <use xlink:href="#TimesNewRomanPSMT-6e" transform="translate(591.455078 0)"/>
      <use xlink:href="#TimesNewRomanPSMT-20" transform="translate(641.455078 0)"/>
      <use xlink:href="#TimesNewRomanPSMT-52" transform="translate(666.455078 0)"/>
      <use xlink:href="#TimesNewRomanPSMT-61" transform="translate(733.154297 0)"/>
      <use xlink:href="#TimesNewRomanPSMT-74" transform="translate(777.539062 0)"/>
      <use xlink:href="#TimesNewRomanPSMT-65" transform="translate(805.322266 0)"/>
     </g>
    </g>
   </g>
   <g id="line2d_25">
    <path d="M 93.166619 94.168264 
L 93.586431 93.962668 
L 94.006243 93.440021 
L 94.426055 92.580335 
L 94.985804 90.919367 
L 96.944927 84.260743 
L 97.224801 84.055541 
L 97.504676 84.193577 
L 97.78455 84.663109 
L 98.204362 85.885514 
L 99.463798 90.150289 
L 99.743673 90.553951 
L 100.023547 90.631839 
L 100.303422 90.387479 
L 100.723234 89.543594 
L 101.842732 86.900001 
L 102.122607 86.720302 
L 102.402481 86.86705 
L 102.682356 87.340312 
L 103.102168 88.557641 
L 104.221666 92.249877 
L 104.501541 92.570968 
L 104.641478 92.565648 
L 104.921353 92.173691 
L 105.201227 91.252174 
L 105.621039 88.900055 
L 106.180789 84.306002 
L 107.580162 71.760796 
L 107.999974 69.572429 
L 108.279848 68.813599 
L 108.559723 68.65011 
L 108.839597 69.073614 
L 109.119472 70.043282 
L 109.539284 72.362213 
L 110.23897 77.721191 
L 111.358469 86.409684 
L 111.918218 89.279961 
L 112.33803 90.452636 
L 112.617905 90.74799 
L 112.897779 90.672085 
L 113.177654 90.260396 
L 113.597466 89.124159 
L 114.297152 86.369994 
L 115.416651 81.882425 
L 116.116337 79.889354 
L 117.655648 76.018959 
L 118.355334 73.278154 
L 119.894644 66.687526 
L 120.314456 65.774352 
L 120.594331 65.539908 
L 120.874206 65.613657 
L 121.15408 65.9607 
L 121.713829 67.207099 
L 122.413516 68.801678 
L 122.833328 69.215436 
L 123.113202 69.152753 
L 123.393077 68.81786 
L 123.812889 67.909471 
L 124.79245 65.4635 
L 125.072325 65.12414 
L 125.352199 65.08708 
L 125.632074 65.403371 
L 125.911948 66.090823 
L 126.33176 67.800378 
L 126.89151 71.144339 
L 128.710695 83.10109 
L 129.130506 84.392023 
L 129.410381 84.798682 
L 129.690256 84.883742 
L 129.97013 84.70995 
L 130.389942 84.131215 
L 132.489002 80.347062 
L 133.468563 77.984417 
L 134.168249 76.52772 
L 134.588061 76.143598 
L 134.867936 76.171899 
L 135.147811 76.433177 
L 135.567622 77.212168 
L 136.966995 80.337425 
L 137.24687 80.457856 
L 137.526745 80.284015 
L 137.806619 79.822095 
L 138.226431 78.658475 
L 139.205992 74.901408 
L 139.905679 72.642954 
L 140.325491 71.837098 
L 140.605365 71.577424 
L 140.88524 71.548633 
L 141.165115 71.750221 
L 141.584927 72.449454 
L 142.144676 73.952573 
L 143.124237 76.773597 
L 143.544049 77.351484 
L 143.823923 77.343941 
L 144.103798 76.971131 
L 144.52361 75.715631 
L 145.083359 72.930347 
L 146.902544 62.438186 
L 147.322356 61.154846 
L 147.742168 60.522706 
L 148.022043 60.44998 
L 148.301917 60.635084 
L 148.721729 61.322108 
L 149.281478 62.793795 
L 150.540914 66.410101 
L 150.960726 67.020899 
L 151.240601 67.109322 
L 151.520475 66.897838 
L 151.80035 66.362552 
L 152.220162 64.944288 
L 152.779911 62.033123 
L 154.599096 51.30684 
L 155.018908 50.27894 
L 155.298782 50.081836 
L 155.578657 50.266199 
L 155.858532 50.794311 
L 156.278343 52.106991 
L 157.257905 56.318385 
L 158.097528 59.570277 
L 158.937152 61.919984 
L 160.056651 64.976915 
L 161.456024 69.177777 
L 161.875836 69.888469 
L 162.295648 70.211847 
L 162.715459 70.249112 
L 163.415146 70.241473 
L 163.834958 70.528396 
L 164.25477 71.159098 
L 165.094394 73.071668 
L 165.654143 74.106745 
L 165.934017 74.32934 
L 166.213892 74.279916 
L 166.493767 73.931424 
L 166.913579 72.847831 
L 167.473328 70.499052 
L 169.572387 60.290708 
L 170.132137 58.900981 
L 170.551948 58.305117 
L 170.97176 58.010915 
L 171.391572 57.9364 
L 171.951322 58.087953 
L 172.511071 58.495423 
L 173.07082 59.186775 
L 173.770506 60.459017 
L 174.750068 62.347471 
L 175.16988 62.760228 
L 175.449754 62.791804 
L 175.729629 62.609939 
L 176.149441 61.990335 
L 177.129002 60.280273 
L 177.408876 60.215314 
L 177.688751 60.524309 
L 177.968626 61.264672 
L 178.388438 63.194343 
L 179.088124 68.038027 
L 180.067685 74.875487 
L 180.487497 76.598465 
L 180.767372 77.145056 
L 181.047246 77.188844 
L 181.327121 76.752165 
L 181.746933 75.327526 
L 182.446619 71.606101 
L 183.42618 66.210898 
L 183.845992 64.708945 
L 184.125867 64.143772 
L 184.405742 63.965958 
L 184.685616 64.177264 
L 184.965491 64.755115 
L 185.385303 66.192271 
L 186.224927 70.182827 
L 187.204488 74.521335 
L 188.044111 77.197514 
L 190.423046 83.754785 
L 190.70292 83.999559 
L 190.982795 83.951254 
L 191.262669 83.582182 
L 191.682481 82.421181 
L 192.242231 79.907599 
L 194.061416 70.709037 
L 194.481227 69.91257 
L 194.761102 69.864273 
L 195.040977 70.224412 
L 195.320851 70.988815 
L 195.740663 72.817707 
L 196.44035 77.097164 
L 197.279974 82.140157 
L 197.699785 83.67351 
L 197.97966 84.11576 
L 198.119597 84.145965 
L 198.399472 83.816404 
L 198.679347 82.984506 
L 199.099159 80.910827 
L 199.798845 75.943997 
L 201.338155 64.453449 
L 201.897905 61.696644 
L 202.317716 60.435491 
L 202.597591 59.999953 
L 202.877466 59.887039 
L 203.15734 60.075966 
L 203.577152 60.854624 
L 204.136901 62.624189 
L 204.836588 65.678453 
L 207.075585 76.312048 
L 207.355459 76.588746 
L 207.495397 76.546949 
L 207.775271 76.081025 
L 208.195083 74.484838 
L 208.754832 71.103776 
L 209.734394 64.921878 
L 210.154206 63.401529 
L 210.43408 62.975188 
L 210.713955 63.020756 
L 210.993829 63.507081 
L 211.413641 64.895653 
L 212.253265 68.859971 
L 213.092889 72.555095 
L 213.652638 74.279327 
L 214.212387 75.331598 
L 214.632199 75.678351 
L 214.912074 75.688866 
L 215.191948 75.514625 
L 215.61176 74.891831 
L 216.031572 73.836021 
L 216.731259 71.306256 
L 217.990695 66.431925 
L 218.550444 65.077374 
L 218.970256 64.551863 
L 219.390068 64.416289 
L 219.80988 64.610366 
L 220.229691 65.073221 
L 220.789441 66.022039 
L 221.629064 67.975437 
L 223.028437 71.379959 
L 223.448249 71.911603 
L 223.728124 72.026093 
L 224.007999 71.925097 
L 224.287873 71.608048 
L 224.707685 70.767554 
L 225.547309 68.32474 
L 226.386933 66.115404 
L 226.806745 65.491179 
L 227.086619 65.3069 
L 227.366494 65.317116 
L 227.646369 65.520488 
L 228.06618 66.16292 
L 228.62593 67.535033 
L 229.885365 70.98285 
L 230.305177 71.465773 
L 230.585052 71.423232 
L 230.864927 71.050461 
L 231.284738 69.865971 
L 231.844488 67.289151 
L 233.523735 58.347715 
L 233.943547 57.356255 
L 234.223422 57.22559 
L 234.503296 57.570037 
L 234.783171 58.409377 
L 235.202983 60.590116 
L 235.762732 65.019128 
L 236.742293 75.213293 
L 237.861792 86.447713 
L 238.701416 92.675699 
L 239.261165 95.565294 
L 239.820914 97.331281 
L 240.100789 97.749912 
L 240.380663 97.844919 
L 240.660538 97.618414 
L 240.940412 97.07955 
L 241.360224 95.75186 
L 242.059911 92.49089 
L 244.578782 79.349502 
L 244.998594 78.188369 
L 245.418406 77.639768 
L 245.698281 77.645656 
L 245.978155 77.956762 
L 246.397967 78.96289 
L 246.957716 81.102224 
L 248.217152 86.41325 
L 248.636964 87.278553 
L 248.916839 87.374126 
L 249.196713 87.025796 
L 249.476588 86.212584 
L 249.8964 84.123167 
L 250.456149 79.896237 
L 251.575648 68.868098 
L 252.415271 61.411113 
L 252.975021 57.95479 
L 253.394832 56.326039 
L 253.814644 55.534192 
L 254.094519 55.447819 
L 254.374394 55.699286 
L 254.794206 56.654108 
L 255.353955 58.82223 
L 257.17314 67.08448 
L 257.592952 67.978383 
L 258.012764 68.358324 
L 258.292638 68.379966 
L 258.71245 68.164063 
L 259.272199 67.581299 
L 259.831948 66.688686 
L 260.391698 65.303333 
L 260.951447 63.207477 
L 261.651133 59.595559 
L 263.050506 52.039557 
L 263.610256 50.283645 
L 264.030068 49.656838 
L 264.309942 49.539057 
L 264.589817 49.6225 
L 265.009629 50.046106 
L 265.569378 51.013723 
L 266.269064 52.697347 
L 267.108688 55.324761 
L 268.647999 60.324589 
L 269.347685 61.865798 
L 270.187309 63.173943 
L 271.306807 64.903115 
L 272.006494 66.461319 
L 272.70618 68.669526 
L 273.685742 72.716302 
L 274.525365 75.864645 
L 274.945177 76.744184 
L 275.225052 76.935798 
L 275.504927 76.772473 
L 275.784801 76.236764 
L 276.204613 74.763924 
L 276.764362 71.744913 
L 279.143296 57.094485 
L 279.703046 55.365777 
L 280.122858 54.599938 
L 280.542669 54.217695 
L 280.962481 54.134763 
L 281.382293 54.274896 
L 281.942043 54.69508 
L 282.921604 55.763151 
L 284.041102 56.930036 
L 284.600851 57.220794 
L 285.160601 57.244371 
L 286.000224 57.162794 
L 286.420036 57.390362 
L 286.839848 58.013336 
L 287.25966 59.119299 
L 287.819409 61.280463 
L 289.218782 67.179827 
L 289.638594 67.998373 
L 289.918469 68.110789 
L 290.198343 67.857416 
L 290.478218 67.252586 
L 290.89803 65.775378 
L 291.737654 61.660242 
L 292.577278 57.870297 
L 293.137027 56.313925 
L 293.556839 55.728482 
L 293.976651 55.54921 
L 294.396463 55.649917 
L 294.956212 56.025135 
L 295.655898 56.765165 
L 296.215648 57.762646 
L 296.775397 59.421754 
L 297.335146 61.877955 
L 298.874456 69.390828 
L 299.154331 69.969865 
L 299.434206 70.089954 
L 299.71408 69.723732 
L 299.993955 68.889401 
L 300.413767 66.897016 
L 302.372889 55.990132 
L 302.792701 55.081455 
L 303.072575 54.815285 
L 303.35245 54.765646 
L 303.772262 54.946371 
L 304.611886 55.380241 
L 304.89176 55.328137 
L 305.171635 55.106335 
L 305.591447 54.41378 
L 306.151196 52.846489 
L 307.830444 47.244102 
L 308.110318 46.903581 
L 308.390193 46.879669 
L 308.670068 47.178989 
L 309.08988 48.163277 
L 310.62919 52.899771 
L 310.909064 53.129862 
L 311.188939 53.037637 
L 311.468814 52.645676 
L 312.028563 51.259586 
L 312.728249 49.562362 
L 313.008124 49.295508 
L 313.287999 49.417602 
L 313.567873 49.992266 
L 313.987685 51.738469 
L 314.547434 55.530837 
L 316.646494 72.140435 
L 317.206243 74.348777 
L 317.626055 75.222483 
L 317.90593 75.482912 
L 318.185804 75.526494 
L 318.605616 75.271835 
L 319.305303 74.365923 
L 320.004989 73.540833 
L 320.424801 73.362448 
L 320.844613 73.466986 
L 322.104049 74.143992 
L 322.383923 74.011509 
L 322.803735 73.529809 
L 323.783296 72.101106 
L 324.063171 72.023846 
L 324.343046 72.240552 
L 324.62292 72.787617 
L 325.042732 74.197835 
L 325.882356 78.295157 
L 326.582043 81.368259 
L 327.001854 82.429899 
L 327.281729 82.699943 
L 327.561604 82.598139 
L 327.841478 82.125506 
L 328.26129 80.76313 
L 328.821039 77.925632 
L 329.940538 70.508868 
L 330.780162 65.618688 
L 331.339911 63.440625 
L 331.89966 62.128995 
L 333.299033 59.604112 
L 333.858782 57.496752 
L 334.558469 53.662403 
L 335.677967 47.268305 
L 336.097779 45.82745 
L 336.377654 45.3347 
L 336.657528 45.236183 
L 336.937403 45.498344 
L 337.357215 46.448781 
L 338.196839 49.352976 
L 339.1764 52.505513 
L 340.575773 56.607551 
L 341.695271 60.194797 
L 342.115083 60.893023 
L 342.394958 60.995221 
L 342.674832 60.785392 
L 343.094644 59.943728 
L 344.633955 55.758222 
L 344.913829 55.585516 
L 345.193704 55.715051 
L 345.473579 56.142531 
L 345.89339 57.282614 
L 346.45314 59.511683 
L 348.692137 69.330768 
L 349.111948 69.991025 
L 349.391823 70.086854 
L 349.671698 69.935557 
L 350.09151 69.352639 
L 351.211008 67.500795 
L 351.63082 67.221204 
L 352.050632 67.195512 
L 353.030193 67.269361 
L 353.450005 67.038852 
L 354.009754 66.446424 
L 355.549064 64.640306 
L 356.248751 63.791608 
L 356.948437 62.547009 
L 358.347811 59.805774 
L 358.767622 59.538703 
L 359.047497 59.654587 
L 359.327372 60.051863 
L 359.747184 61.261367 
L 360.166995 63.273831 
L 360.726745 67.198192 
L 361.706306 76.224743 
L 362.54593 83.062804 
L 362.965742 85.069369 
L 363.245616 85.703454 
L 363.385553 85.800652 
L 363.525491 85.749446 
L 363.805365 85.226544 
L 364.225177 83.483598 
L 364.784927 79.819205 
L 366.604111 66.448049 
L 367.163861 64.249204 
L 367.583673 63.486466 
L 367.863547 63.363918 
L 368.143422 63.502655 
L 368.563234 64.08802 
L 369.402858 65.901162 
L 370.522356 68.219339 
L 372.061666 71.222904 
L 373.600977 74.429655 
L 374.300663 75.338768 
L 375.00035 75.89263 
L 375.979911 76.376548 
L 376.399723 76.429708 
L 376.819535 76.229906 
L 377.099409 75.87111 
L 377.519221 74.857918 
L 377.939033 73.163593 
L 378.498782 69.825298 
L 380.317967 57.253269 
L 380.737779 55.926575 
L 381.017654 55.5487 
L 381.297528 55.543091 
L 381.577403 55.857615 
L 381.997215 56.78328 
L 382.696901 59.050921 
L 384.096274 64.557599 
L 386.055397 72.343322 
L 386.755083 74.128339 
L 387.174895 74.715103 
L 387.594707 74.921871 
L 388.014519 74.799508 
L 388.574268 74.298436 
L 390.673328 71.877731 
L 391.233077 70.66819 
L 391.792826 68.868839 
L 393.751948 61.618507 
L 394.17176 60.936906 
L 394.451635 60.764218 
L 394.73151 60.81573 
L 395.011384 61.069532 
L 395.431196 61.783098 
L 396.27082 63.868588 
L 396.970506 65.412679 
L 397.390318 65.885401 
L 397.530256 65.939601 
L 397.530256 65.939601 
" clip-path="url(#p83a9f3917a)" style="fill: none; stroke: #800080; stroke-width: 2.5; stroke-linecap: square"/>
   </g>
   <g id="line2d_26">
    <path d="M 93.166619 169.195967 
L 93.866306 169.261951 
L 94.286118 169.530005 
L 94.70593 170.197147 
L 95.125742 171.421938 
L 95.685491 173.986501 
L 97.504676 183.769054 
L 97.924488 184.6897 
L 98.204362 184.916183 
L 98.484237 184.90225 
L 99.603735 184.394079 
L 99.88361 184.651044 
L 100.163485 185.196056 
L 100.583296 186.572239 
L 101.143046 189.301406 
L 103.382043 201.404211 
L 103.941792 203.040244 
L 104.361604 203.766996 
L 104.781416 204.114368 
L 105.201227 204.189753 
L 106.460663 204.156273 
L 106.880475 204.440679 
L 107.440224 205.111984 
L 108.279848 206.153808 
L 108.559723 206.269978 
L 108.839597 206.159315 
L 109.119472 205.76993 
L 109.539284 204.605054 
L 110.099033 202.046013 
L 111.498406 194.919324 
L 111.778281 194.292506 
L 112.058155 194.12529 
L 112.33803 194.432169 
L 112.617905 195.187803 
L 113.037716 197.008316 
L 114.996839 207.015558 
L 115.556588 208.274905 
L 115.9764 208.661913 
L 116.256274 208.659616 
L 116.536149 208.430444 
L 116.816024 207.943038 
L 117.235836 206.645978 
L 117.655648 204.566314 
L 118.215397 200.544017 
L 120.454394 182.221119 
L 120.874206 181.054241 
L 121.15408 180.857356 
L 121.433955 181.078706 
L 121.713829 181.664161 
L 122.273579 183.62487 
L 125.911948 199.543038 
L 126.89151 204.649956 
L 127.311322 205.884435 
L 127.591196 206.195889 
L 127.871071 206.078459 
L 128.150945 205.55556 
L 128.570757 204.160299 
L 130.110068 198.108109 
L 130.52988 197.541871 
L 130.809754 197.554495 
L 131.089629 197.855191 
L 131.509441 198.740841 
L 133.328626 203.363176 
L 133.748437 203.708352 
L 134.168249 203.770912 
L 135.147811 203.722537 
L 135.567622 204.069358 
L 135.987434 204.860557 
L 136.407246 206.18681 
L 136.966995 208.799657 
L 137.806619 214.092054 
L 138.78618 220.258771 
L 139.205992 221.987368 
L 139.485867 222.603965 
L 139.765742 222.703416 
L 140.045616 222.250318 
L 140.325491 221.22719 
L 140.745303 218.68663 
L 141.444989 212.421058 
L 142.844362 199.213464 
L 143.404111 196.111429 
L 143.823923 194.89226 
L 144.103798 194.536155 
L 144.383673 194.457086 
L 144.803485 194.658244 
L 145.643108 195.172699 
L 146.06292 195.148046 
L 147.182419 194.80472 
L 147.462293 195.035999 
L 147.742168 195.536357 
L 148.16198 196.863283 
L 148.721729 199.66932 
L 150.680851 211.030212 
L 151.100663 211.952548 
L 151.380538 212.07682 
L 151.660412 211.801549 
L 151.940287 211.139465 
L 152.360099 209.492109 
L 153.059785 205.446544 
L 154.459159 196.684938 
L 154.87897 195.120689 
L 155.158845 194.578731 
L 155.43872 194.48369 
L 155.718594 194.850221 
L 155.998469 195.66018 
L 156.418281 197.606718 
L 157.257905 203.100378 
L 158.237466 209.204197 
L 158.797215 211.374657 
L 159.217027 212.199058 
L 159.496901 212.384929 
L 159.776776 212.3144 
L 160.196588 211.815512 
L 160.896274 210.360409 
L 161.875836 208.367931 
L 162.295648 207.911877 
L 162.575522 207.80268 
L 162.855397 207.868955 
L 163.135271 208.119857 
L 163.555083 208.841157 
L 164.114832 210.392196 
L 165.79408 215.723271 
L 166.073955 215.984086 
L 166.353829 215.902869 
L 166.633704 215.453208 
L 167.053516 214.114464 
L 167.613265 211.289171 
L 168.872701 203.068104 
L 169.852262 197.522847 
L 170.412011 195.381237 
L 170.831823 194.443557 
L 171.111698 194.178874 
L 171.391572 194.211421 
L 171.671447 194.541592 
L 172.091259 195.549501 
L 172.651008 197.641699 
L 174.190318 203.877451 
L 174.61013 204.775846 
L 175.029942 205.206896 
L 175.449754 205.299793 
L 176.149441 205.335027 
L 176.429315 205.52578 
L 176.849127 206.164981 
L 177.268939 207.254111 
L 178.2485 210.751605 
L 178.808249 212.405992 
L 179.228061 213.037451 
L 179.507936 213.07633 
L 179.787811 212.776606 
L 180.067685 212.124356 
L 180.487497 210.50401 
L 181.047246 207.290295 
L 183.286243 192.570107 
L 183.845992 190.933889 
L 184.265804 190.389381 
L 184.545679 190.287189 
L 184.965491 190.408028 
L 186.084989 190.97109 
L 186.364864 190.863604 
L 186.784676 190.375947 
L 187.344425 189.1645 
L 188.184049 187.145114 
L 188.463923 186.809917 
L 188.743798 186.813941 
L 189.023673 187.231563 
L 189.303547 188.104317 
L 189.723359 190.250713 
L 190.423046 195.458404 
L 191.262669 201.758941 
L 191.682481 203.720972 
L 191.962356 204.34059 
L 192.102293 204.430385 
L 192.242231 204.375044 
L 192.522105 203.855218 
L 192.941917 202.235124 
L 194.34129 195.559154 
L 194.621165 195.004748 
L 194.901039 194.864882 
L 195.180914 195.113435 
L 195.600726 196.07382 
L 197.279974 201.04826 
L 197.699785 201.562233 
L 198.259535 201.852714 
L 198.959221 202.15871 
L 199.51897 202.718324 
L 200.778406 204.292009 
L 201.058281 204.320571 
L 201.338155 204.108429 
L 201.61803 203.635002 
L 202.037842 202.445565 
L 202.737528 199.509769 
L 203.996964 194.072273 
L 204.556713 192.646174 
L 204.976525 192.144481 
L 205.2564 192.076739 
L 205.536274 192.204809 
L 205.956086 192.709383 
L 206.655773 194.100746 
L 207.635334 196.099296 
L 208.055146 196.59837 
L 208.335021 196.728385 
L 208.614895 196.666583 
L 208.89477 196.397193 
L 209.314582 195.569955 
L 209.734394 194.194899 
L 210.294143 191.453814 
L 210.853892 187.600895 
L 211.553579 181.217828 
L 213.652638 160.093494 
L 214.07245 158.06306 
L 214.352325 157.388153 
L 214.632199 157.239986 
L 214.912074 157.562686 
L 215.331886 158.773635 
L 215.891635 161.392609 
L 216.591322 165.819023 
L 217.291008 171.551586 
L 218.130632 180.489986 
L 219.949817 201.466215 
L 220.509566 205.30527 
L 220.929378 206.900628 
L 221.209253 207.403389 
L 221.489127 207.533214 
L 221.769002 207.372354 
L 222.188814 206.783714 
L 223.308312 204.968444 
L 224.007999 204.318254 
L 224.847622 203.584312 
L 226.386933 201.995039 
L 226.806745 202.023752 
L 227.226557 202.337448 
L 228.765867 203.88893 
L 229.465553 204.037132 
L 230.025303 204.172875 
L 230.585052 204.590649 
L 231.284738 205.541538 
L 232.124362 206.704148 
L 232.544174 206.988692 
L 232.963986 206.960499 
L 233.103923 206.876984 
L 233.243861 195.726428 
L 233.80361 194.913455 
L 235.762732 191.541325 
L 236.182544 191.29224 
L 236.602356 191.347126 
L 237.022168 191.70849 
L 237.581917 192.56262 
L 238.561478 194.164693 
L 238.98129 194.444322 
L 239.261165 194.396328 
L 239.541039 194.146127 
L 239.960851 193.423042 
L 241.640099 189.72952 
L 241.919974 189.607987 
L 242.199848 189.741785 
L 242.479723 190.13684 
L 242.899535 191.198407 
L 243.459284 193.348833 
L 244.578782 198.926232 
L 245.418406 202.718898 
L 245.978155 204.444192 
L 246.397967 205.19756 
L 246.817779 205.500761 
L 247.237591 205.428668 
L 247.79734 204.998519 
L 248.497027 204.517999 
L 248.916839 204.563107 
L 249.196713 204.805453 
L 249.616525 205.525493 
L 250.176274 207.097208 
L 252.275334 214.027701 
L 252.695146 214.430338 
L 252.975021 214.377884 
L 253.254895 214.058968 
L 253.674707 213.095531 
L 254.234456 210.990185 
L 255.214017 205.953381 
L 256.053641 201.908488 
L 256.61339 200.131071 
L 257.033202 199.388362 
L 257.453014 199.051708 
L 258.572513 198.57257 
L 258.992325 198.007879 
L 259.692011 196.500094 
L 260.391698 195.080405 
L 260.671572 194.811576 
L 260.951447 194.807933 
L 261.231322 195.09373 
L 261.651133 196.033949 
L 263.190444 200.498627 
L 263.470318 200.542614 
L 263.750193 200.152606 
L 264.030068 199.324486 
L 264.44988 197.371276 
L 265.98919 189.157744 
L 266.269064 188.633636 
L 266.548939 188.594622 
L 266.828814 189.012938 
L 267.248626 190.326011 
L 268.508061 195.19433 
L 268.927873 195.817194 
L 269.207748 195.798124 
L 269.487622 195.458006 
L 269.907434 194.484388 
L 271.16687 191.031435 
L 271.586682 190.586504 
L 271.866557 190.60854 
L 272.146431 190.875419 
L 272.566243 191.661697 
L 273.825679 194.536038 
L 274.105553 194.716455 
L 274.385428 194.563551 
L 274.665303 194.040311 
L 275.085115 192.555074 
L 275.644864 189.47179 
L 277.184174 180.063833 
L 277.603986 178.719846 
L 277.883861 178.293836 
L 278.163735 178.241852 
L 278.44361 178.537042 
L 278.863422 179.504605 
L 279.842983 182.846462 
L 280.402732 184.378737 
L 280.822544 185.010597 
L 281.102419 185.161315 
L 281.382293 185.119 
L 281.802105 184.769716 
L 282.501792 183.77572 
L 284.320977 181.014073 
L 284.740789 180.766133 
L 285.020663 180.846027 
L 285.300538 181.185441 
L 285.72035 182.260339 
L 286.280099 184.736589 
L 287.959347 193.446269 
L 288.239221 193.947195 
L 288.519096 193.966565 
L 288.79897 193.495684 
L 289.218782 191.9287 
L 289.778532 188.557898 
L 291.457779 177.141998 
L 291.877591 175.738787 
L 292.157466 175.402608 
L 292.297403 175.430538 
L 292.577278 175.897484 
L 292.857152 176.916868 
L 293.276964 179.444079 
L 293.836713 184.352455 
L 295.376024 199.181484 
L 295.795836 201.278374 
L 296.07571 201.895814 
L 296.215648 201.969723 
L 296.355585 201.895064 
L 296.635459 201.338073 
L 297.055271 199.692137 
L 298.734519 191.741595 
L 299.294268 190.518287 
L 299.854017 189.846564 
L 300.693641 188.939742 
L 301.25339 188.024402 
L 301.953077 186.432188 
L 303.072575 183.192393 
L 303.912199 180.987928 
L 304.332011 180.353819 
L 304.611886 180.213146 
L 304.89176 180.330832 
L 305.171635 180.721287 
L 305.591447 181.779409 
L 306.291133 184.375399 
L 306.99082 186.853784 
L 307.410632 187.714638 
L 307.690506 187.912055 
L 307.970381 187.799935 
L 308.250256 187.406818 
L 308.810005 186.049313 
L 309.649629 183.927445 
L 310.069441 183.387221 
L 310.349315 183.293984 
L 310.62919 183.394495 
L 311.049002 183.8048 
L 311.888626 184.727206 
L 312.308437 184.84625 
L 312.728249 184.624989 
L 313.287999 183.921572 
L 314.127622 182.781467 
L 314.547434 182.538747 
L 314.967246 182.614308 
L 315.387058 182.970097 
L 317.34618 185.094566 
L 318.045867 185.737294 
L 318.605616 186.57029 
L 319.585177 188.637806 
L 320.144927 189.647553 
L 320.564738 190.066552 
L 320.98455 190.121367 
L 321.404362 189.867632 
L 322.383923 189.048938 
L 322.663798 189.036914 
L 322.943673 189.221786 
L 323.363485 189.917224 
L 323.783296 191.123121 
L 324.482983 194.051692 
L 326.022293 201.112763 
L 326.442105 202.222383 
L 326.72198 202.582189 
L 327.001854 202.586755 
L 327.281729 202.209518 
L 327.701541 200.919639 
L 328.26129 198.033929 
L 330.080475 187.137493 
L 330.500287 185.847071 
L 330.920099 185.13054 
L 331.339911 184.843642 
L 331.759723 184.8395 
L 332.179535 185.03317 
L 332.599347 185.416565 
L 333.019159 186.043573 
L 333.578908 187.335651 
L 335.258155 191.945999 
L 335.53803 192.027599 
L 335.817905 191.697406 
L 336.097779 190.9182 
L 336.517591 188.907971 
L 337.07734 184.93433 
L 338.476713 174.354973 
L 338.896525 172.818235 
L 339.1764 172.464997 
L 339.316337 172.487448 
L 339.596212 172.909438 
L 340.016024 174.295106 
L 341.415397 179.800077 
L 341.695271 180.113008 
L 341.975146 180.033173 
L 342.255021 179.596619 
L 342.81477 178.027268 
L 343.514456 176.106018 
L 343.794331 175.76373 
L 344.074206 175.80195 
L 344.35408 176.262048 
L 344.773892 177.732324 
L 345.333641 180.879106 
L 347.432701 194.31866 
L 347.99245 196.373716 
L 348.552199 197.572235 
L 348.972011 197.992003 
L 349.391823 198.117764 
L 350.791196 198.207325 
L 351.211008 198.57998 
L 351.770757 199.426823 
L 353.589942 202.710617 
L 354.009754 202.888399 
L 354.289629 202.796592 
L 354.709441 202.357406 
L 355.26919 201.343588 
L 356.388688 199.147225 
L 356.8085 198.702897 
L 357.228312 198.581918 
L 357.648124 198.754831 
L 358.347811 199.411563 
L 358.90756 199.865315 
L 359.327372 199.942329 
L 359.747184 199.70259 
L 360.166995 199.126259 
L 360.726745 197.892728 
L 361.426431 195.723684 
L 362.126118 192.773663 
L 362.825804 188.703296 
L 363.665428 182.192625 
L 365.064801 170.963079 
L 365.62455 168.146595 
L 366.044362 167.004574 
L 366.324237 166.701261 
L 366.604111 166.730742 
L 366.883986 167.061489 
L 367.303798 168.045094 
L 367.863547 170.144225 
L 368.423296 173.132714 
L 369.122983 178.329248 
L 369.822669 185.349852 
L 371.641854 205.053008 
L 372.061666 207.068182 
L 372.341541 207.428755 
L 372.481478 207.300012 
L 372.761353 206.432177 
L 373.181165 203.728712 
L 373.740914 198.094182 
L 375.979911 172.623343 
L 376.679597 167.952583 
L 377.099409 166.311049 
L 377.379284 165.776537 
L 377.659159 165.72228 
L 377.939033 166.17172 
L 378.218908 167.121263 
L 378.63872 169.406 
L 379.338406 174.796554 
L 380.317967 182.40728 
L 380.877716 185.170543 
L 381.297528 186.244709 
L 381.577403 186.549216 
L 381.857278 186.605151 
L 382.27709 186.415717 
L 383.116713 185.928879 
L 383.676463 185.925315 
L 384.656024 186.31704 
L 385.215773 186.435322 
L 385.775522 186.333352 
L 386.335271 186.014276 
L 387.034958 185.354635 
L 388.714206 183.517931 
L 388.99408 183.505704 
L 389.273955 183.712042 
L 389.553829 184.195419 
L 389.973641 185.525274 
L 390.393453 187.636265 
L 391.09314 192.668834 
L 392.492513 203.552163 
L 392.912325 205.418629 
L 393.192199 206.030265 
L 393.332137 206.13071 
L 393.472074 206.090717 
L 393.751948 205.589278 
L 394.031823 204.542123 
L 394.451635 202.041321 
L 395.151322 195.983278 
L 396.690632 181.626647 
L 397.110444 179.392113 
L 397.390318 178.612127 
L 397.530256 178.452894 
L 397.530256 178.452894 
" clip-path="url(#p83a9f3917a)" style="fill: none; stroke: #5267e1; stroke-width: 2.5; stroke-linecap: square"/>
   </g>
   <g id="patch_3">
    <path d="M 77.948437 237.986875 
L 77.948437 16.226875 
" style="fill: none; stroke: #000000; stroke-width: 0.8; stroke-linejoin: miter; stroke-linecap: square"/>
   </g>
   <g id="patch_4">
    <path d="M 412.748438 237.986875 
L 412.748438 16.226875 
" style="fill: none; stroke: #000000; stroke-width: 0.8; stroke-linejoin: miter; stroke-linecap: square"/>
   </g>
   <g id="patch_5">
    <path d="M 77.948437 237.986875 
L 412.748437 237.986875 
" style="fill: none; stroke: #000000; stroke-width: 0.8; stroke-linejoin: miter; stroke-linecap: square"/>
   </g>
   <g id="patch_6">
    <path d="M 77.948437 16.226875 
L 412.748437 16.226875 
" style="fill: none; stroke: #000000; stroke-width: 0.8; stroke-linejoin: miter; stroke-linecap: square"/>
   </g>
   <g id="legend_1">
    <g id="patch_7">
     <path d="M 232.82625 150.732813 
L 397.348438 150.732813 
Q 401.748438 150.732813 401.748438 146.332813 
L 401.748438 107.880938 
Q 401.748438 103.480938 397.348438 103.480938 
L 232.82625 103.480938 
Q 228.42625 103.480938 228.42625 107.880938 
L 228.42625 146.332813 
Q 228.42625 150.732813 232.82625 150.732813 
z
" style="fill: #eeeeee; opacity: 0.8; stroke: #cccccc; stroke-width: 0.5; stroke-linejoin: miter"/>
    </g>
    <g id="line2d_27">
     <path d="M 231.72625 114.480938 
L 253.72625 114.480938 
L 275.72625 114.480938 
" style="fill: none; stroke: #800080; stroke-width: 2.5; stroke-linecap: square"/>
    </g>
    <g id="text_15">
     <!-- Hint-GRPO -->
     <g transform="translate(293.32625 122.180938) scale(0.22 -0.22)">
      <defs>
       <path id="TimesNewRomanPSMT-48" d="M 1316 2272 
L 3284 2272 
L 3284 3484 
Q 3284 3809 3244 3913 
Q 3213 3991 3113 4047 
Q 2978 4122 2828 4122 
L 2678 4122 
L 2678 4238 
L 4491 4238 
L 4491 4122 
L 4341 4122 
Q 4191 4122 4056 4050 
Q 3956 4000 3920 3898 
Q 3884 3797 3884 3484 
L 3884 750 
Q 3884 428 3925 325 
Q 3956 247 4053 191 
Q 4191 116 4341 116 
L 4491 116 
L 4491 0 
L 2678 0 
L 2678 116 
L 2828 116 
Q 3088 116 3206 269 
Q 3284 369 3284 750 
L 3284 2041 
L 1316 2041 
L 1316 750 
Q 1316 428 1356 325 
Q 1388 247 1488 191 
Q 1622 116 1772 116 
L 1925 116 
L 1925 0 
L 109 0 
L 109 116 
L 259 116 
Q 522 116 641 269 
Q 716 369 716 750 
L 716 3484 
Q 716 3809 675 3913 
Q 644 3991 547 4047 
Q 409 4122 259 4122 
L 109 4122 
L 109 4238 
L 1925 4238 
L 1925 4122 
L 1772 4122 
Q 1622 4122 1488 4050 
Q 1391 4000 1353 3898 
Q 1316 3797 1316 3484 
L 1316 2272 
z
" transform="scale(0.015625)"/>
       <path id="TimesNewRomanPSMT-2d" d="M 259 1672 
L 1875 1672 
L 1875 1200 
L 259 1200 
L 259 1672 
z
" transform="scale(0.015625)"/>
       <path id="TimesNewRomanPSMT-47" d="M 3928 4334 
L 4038 2997 
L 3928 2997 
Q 3763 3497 3500 3750 
Q 3122 4116 2528 4116 
Q 1719 4116 1297 3475 
Q 944 2934 944 2188 
Q 944 1581 1178 1081 
Q 1413 581 1792 348 
Q 2172 116 2572 116 
Q 2806 116 3025 175 
Q 3244 234 3447 350 
L 3447 1575 
Q 3447 1894 3398 1992 
Q 3350 2091 3248 2142 
Q 3147 2194 2891 2194 
L 2891 2313 
L 4531 2313 
L 4531 2194 
L 4453 2194 
Q 4209 2194 4119 2031 
Q 4056 1916 4056 1575 
L 4056 278 
Q 3697 84 3347 -6 
Q 2997 -97 2569 -97 
Q 1341 -97 703 691 
Q 225 1281 225 2053 
Q 225 2613 494 3125 
Q 813 3734 1369 4063 
Q 1834 4334 2469 4334 
Q 2700 4334 2889 4296 
Q 3078 4259 3425 4131 
Q 3600 4066 3659 4066 
Q 3719 4066 3761 4120 
Q 3803 4175 3813 4334 
L 3928 4334 
z
" transform="scale(0.015625)"/>
       <path id="TimesNewRomanPSMT-50" d="M 1313 1984 
L 1313 750 
Q 1313 350 1400 253 
Q 1519 116 1759 116 
L 1922 116 
L 1922 0 
L 106 0 
L 106 116 
L 266 116 
Q 534 116 650 291 
Q 713 388 713 750 
L 713 3488 
Q 713 3888 628 3984 
Q 506 4122 266 4122 
L 106 4122 
L 106 4238 
L 1659 4238 
Q 2228 4238 2556 4120 
Q 2884 4003 3109 3725 
Q 3334 3447 3334 3066 
Q 3334 2547 2992 2222 
Q 2650 1897 2025 1897 
Q 1872 1897 1694 1919 
Q 1516 1941 1313 1984 
z
M 1313 2163 
Q 1478 2131 1606 2115 
Q 1734 2100 1825 2100 
Q 2150 2100 2386 2351 
Q 2622 2603 2622 3003 
Q 2622 3278 2509 3514 
Q 2397 3750 2190 3867 
Q 1984 3984 1722 3984 
Q 1563 3984 1313 3925 
L 1313 2163 
z
" transform="scale(0.015625)"/>
       <path id="TimesNewRomanPSMT-4f" d="M 2341 4334 
Q 3166 4334 3770 3707 
Q 4375 3081 4375 2144 
Q 4375 1178 3765 540 
Q 3156 -97 2291 -97 
Q 1416 -97 820 525 
Q 225 1147 225 2134 
Q 225 3144 913 3781 
Q 1509 4334 2341 4334 
z
M 2281 4106 
Q 1713 4106 1369 3684 
Q 941 3159 941 2147 
Q 941 1109 1384 550 
Q 1725 125 2284 125 
Q 2881 125 3270 590 
Q 3659 1056 3659 2059 
Q 3659 3147 3231 3681 
Q 2888 4106 2281 4106 
z
" transform="scale(0.015625)"/>
      </defs>
      <use xlink:href="#TimesNewRomanPSMT-48"/>
      <use xlink:href="#TimesNewRomanPSMT-69" transform="translate(72.216797 0)"/>
      <use xlink:href="#TimesNewRomanPSMT-6e" transform="translate(100 0)"/>
      <use xlink:href="#TimesNewRomanPSMT-74" transform="translate(150 0)"/>
      <use xlink:href="#TimesNewRomanPSMT-2d" transform="translate(177.783203 0)"/>
      <use xlink:href="#TimesNewRomanPSMT-47" transform="translate(211.083984 0)"/>
      <use xlink:href="#TimesNewRomanPSMT-52" transform="translate(283.300781 0)"/>
      <use xlink:href="#TimesNewRomanPSMT-50" transform="translate(350 0)"/>
      <use xlink:href="#TimesNewRomanPSMT-4f" transform="translate(405.615234 0)"/>
     </g>
    </g>
    <g id="line2d_28">
     <path d="M 231.72625 135.026875 
L 253.72625 135.026875 
L 275.72625 135.026875 
" style="fill: none; stroke: #5267e1; stroke-width: 2.5; stroke-linecap: square"/>
    </g>
    <g id="text_16">
     <!-- GRPO -->
     <g transform="translate(293.32625 142.726875) scale(0.22 -0.22)">
      <use xlink:href="#TimesNewRomanPSMT-47"/>
      <use xlink:href="#TimesNewRomanPSMT-52" transform="translate(72.216797 0)"/>
      <use xlink:href="#TimesNewRomanPSMT-50" transform="translate(138.916016 0)"/>
      <use xlink:href="#TimesNewRomanPSMT-4f" transform="translate(194.53125 0)"/>
     </g>
    </g>
   </g>
  </g>
 </g>
 <defs>
  <clipPath id="p83a9f3917a">
   <rect x="77.948437" y="16.226875" width="334.8" height="221.76"/>
  </clipPath>
 </defs>
</svg>
